<?xml version="1.0" encoding="utf-8"?>
<!-- Generator: Adobe Illustrator 24.0.1, SVG Export Plug-In . SVG Version: 6.00 Build 0)  -->
<svg version="1.1" id="Layer_1" xmlns="http://www.w3.org/2000/svg" xmlns:xlink="http://www.w3.org/1999/xlink" x="0px" y="0px"
	 viewBox="0 0 77 77" style="enable-background:new 0 0 77 77;" xml:space="preserve">
<style type="text/css">
	.st0{fill:#A0A0A0;}
</style>
<g>
	<g>
		<path class="st0" d="M21.6,36.3V21.9H35v11.4c0,6.2-0.7,10.7-2.2,13.5c-1.9,3.7-5,6.5-9.2,8.4l-3-4.9c2.5-1.1,4.4-2.6,5.6-4.8
			c1.2-2.1,1.9-5.2,2-9.2C28.2,36.3,21.6,36.3,21.6,36.3z M43.1,36.3V21.9h13.4v11.4c0,6.2-0.7,10.7-2.2,13.5
			c-1.9,3.7-5,6.5-9.2,8.4l-3-4.9c2.5-1.1,4.4-2.6,5.6-4.8c1.2-2.1,1.9-5.2,2-9.2C49.7,36.3,43.1,36.3,43.1,36.3z"/>
	</g>
</g>
</svg>
