<?xml version="1.0" encoding="utf-8"?>
<!-- Generator: Adobe Illustrator 24.0.1, SVG Export Plug-In . SVG Version: 6.00 Build 0)  -->
<svg version="1.1" id="Layer_1" xmlns="http://www.w3.org/2000/svg" xmlns:xlink="http://www.w3.org/1999/xlink" x="0px" y="0px"
	 viewBox="0 0 3005.8 894.7" style="enable-background:new 0 0 3005.8 894.7;" xml:space="preserve">
<style type="text/css">
	.st0{fill:#2459A8;}
</style>
<g>
	<path class="st0" d="M1867.1,513.3h105.6v20.9h1033.1v-60.3H1865C1865.2,487.1,1865.9,500.2,1867.1,513.3L1867.1,513.3z"/>
	<path class="st0" d="M2258.6,127.2h-297c-9,12.5-17.5,25.5-25.4,38.8h179.4v20.9h890.1v-80.6h-747.1V127.2z"/>
	<path class="st0" d="M2115.7,254.3h-220.9c-4.5,12.8-8.7,25.7-12.2,38.8h90.1V314h1033.1v-80.6h-890.1V254.3z"/>
	<path class="st0" d="M2092.8,0c-17.7,11.9-34.5,24.9-50.5,38.8h216.3v20.9h747.1V0H2092.8z"/>
	<path class="st0" d="M2115.7,728.7h-179.4c7.9,13.3,16.3,26.2,25.4,38.8h297v20.9h747.1v-80.6h-890.1V728.7z"/>
	<path class="st0" d="M1972.7,601.6h-90.1c3.5,13.2,7.7,26.1,12.2,38.8h220.9v20.9h890.1v-80.6H1972.7V601.6z"/>
	<path class="st0" d="M2258.6,855.9h-216.3c16,13.9,32.9,26.9,50.5,38.8h912.9V835h-747.1V855.9z"/>
	<path class="st0" d="M1972.7,381.5h-105.6c-1.2,13-1.9,26.1-2.1,39.4h1140.8v-60.3H1972.7V381.5z"/>
	<path class="st0" d="M1138.7,381.4h-105.6v-20.9H0v60.3h1140.8C1140.6,407.5,1139.8,394.5,1138.7,381.4L1138.7,381.4z"/>
	<path class="st0" d="M747.1,767.5h297c9-12.5,17.5-25.5,25.4-38.8H890.1v-20.9H0v80.6h747.1V767.5z"/>
	<path class="st0" d="M890.1,640.4H1111c4.5-12.8,8.7-25.7,12.2-38.8h-90.1v-20.9H0v80.6h890.1V640.4z"/>
	<path class="st0" d="M912.9,894.7c17.7-11.9,34.5-24.9,50.5-38.8H747.1V835H0v59.7H912.9z"/>
	<path class="st0" d="M890.1,165.9h179.4c-7.9-13.3-16.3-26.2-25.4-38.8h-297v-20.9H0v80.6h890.1V165.9z"/>
	<path class="st0" d="M1033.1,293.1h90.1c-3.5-13.2-7.7-26.1-12.2-38.8H890.1v-20.9H0V314h1033.1V293.1z"/>
	<path class="st0" d="M747.1,38.8h216.3c-16-13.9-32.9-26.9-50.5-38.8H0v59.7h747.1V38.8z"/>
	<path class="st0" d="M1033.1,513.2h105.6c1.2-13,1.9-26.1,2.1-39.4H0v60.3h1033.1V513.2z"/>
</g>
</svg>
