<?xml version="1.0" encoding="utf-8"?>
<!-- Generator: Adobe Illustrator 24.0.1, SVG Export Plug-In . SVG Version: 6.00 Build 0)  -->
<svg version="1.1" id="Layer_1" xmlns="http://www.w3.org/2000/svg" xmlns:xlink="http://www.w3.org/1999/xlink" x="0px" y="0px"
	 viewBox="0 0 77 77" style="enable-background:new 0 0 77 77;" xml:space="preserve">
<style type="text/css">
	.st0{fill:#fff;}
</style>
<g>
	<path class="st0" d="M61.9,74.5c0-5.2,0-10.3,0-15.5c0-1.8-0.3-3.6-0.9-5.4C58.6,47,52.8,43,45.7,42.9c-1.9,0-3.8,0-5.7,0
		c-0.3,0-0.7-0.2-0.8-0.4c-0.7-0.9-1.5-1.5-2.6-1.6c-1.3-0.1-2.6-0.1-4,0c-1,0-1.8,0.5-2.3,1.4c-0.3,0.5-0.6,0.5-1.1,0.4
		c-4.1-0.9-6.7-3.5-7.8-7.6c-0.1-0.5-0.1-0.9,0.5-1.1c0.5-0.2,1-0.7,1.4-1.1c0.4-0.4,0.6-0.9,1-1.4c3.3,5.2,8,8.1,14.1,8.1
		c6.2,0,10.8-2.9,14.1-8.1c0.1,0.2,0.2,0.3,0.2,0.4c1.1,2,3.2,3.1,5.3,2.6c2.2-0.5,3.7-2.3,3.8-4.6c0.1-1.9,0.1-3.8,0-5.7
		c-0.1-2-1-3.5-2.9-4.3c-0.5-0.2-0.6-0.4-0.6-0.9c-0.2-1.1-0.3-2.2-0.6-3.3C55.4,7.5,50,2.4,41.5,1C34-0.2,27.8,2.4,23,8.1
		c-2.6,3.1-4.1,6.7-4.4,10.7c0,0.4-0.1,0.7-0.6,0.9c-1.9,0.8-2.9,2.3-2.9,4.4c-0.1,1.8-0.1,3.7,0,5.5c0,2.1,1,3.6,2.9,4.5
		c0.2,0.1,0.5,0.5,0.5,0.7c0.4,2.7,1.6,5.1,3.5,7c0.8,0.8,1.8,1.5,2.7,2.2c-0.1,0.1-0.2,0.1-0.3,0.2c-6.2,3.1-9.3,8.1-9.4,15
		c-0.1,5,0,10,0,15c0,0.9,0.2,1.5,1,2c0.3,0,0.5,0,0.7,0c0.9-0.4,1-1,1-1.9c0-5.1,0-10.3,0-15.4c0-6.8,4.9-12.3,11.6-13.1
		c0.2,0,0.6,0.1,0.7,0.3c0.7,1,1.8,1.6,3,1.6c1,0,2,0,3,0c1.3,0,2.4-0.5,3.1-1.7c0.1-0.2,0.5-0.3,0.7-0.3c2.2,0,4.5-0.1,6.7,0
		c3.9,0.2,7.1,1.9,9.6,5c2,2.5,2.8,5.4,2.8,8.6c0,5,0,10,0,15.1c0,0.9,0.2,1.6,1.1,2c0.2,0,0.4,0,0.6,0
		C61.6,75.9,61.9,75.3,61.9,74.5L61.9,74.5z M38.5,36.8L38.5,36.8c-7.4,0-13.6-6.2-13.5-13.6S31.1,9.7,38.5,9.7
		c7.4,0,13.6,6.1,13.5,13.5C52,30.7,45.9,36.8,38.5,36.8L38.5,36.8z M57.2,22.2L57.2,22.2c1.1,0,1.9,0.9,1.9,2.1c0,0.9,0,1.8,0,2.7
		c0,0.9,0,1.8,0,2.7c0,1.2-0.8,2-1.9,2c-1.2,0-2-0.8-2.1-2c0-1.9,0-3.7,0-5.6C55.2,23,56.1,22.2,57.2,22.2L57.2,22.2z M24.7,10.4
		L24.7,10.4c5.6-7.2,15.2-9.1,22.9-4.3c4.8,3,7.4,7.4,8.1,13c0.1,0.9-0.7,0.6-1,1c-2.5-8.4-7.9-13.4-16.9-13
		c-8.2,0.3-13.1,5.2-15.4,13c-0.4-0.2-0.7-0.3-1.1-0.5C21.5,16.2,22.6,13.1,24.7,10.4L24.7,10.4z M19.8,31.7L19.8,31.7
		c-1.1,0-1.9-0.9-2-2.1c0-0.9,0-1.8,0-2.7c0-0.7,0-1.4,0-2c0-0.2,0-0.5,0-0.7c0-1.2,0.9-2,2-2s2,0.9,2,2c0,1.8,0,3.7,0,5.5
		C21.8,30.9,20.9,31.7,19.8,31.7L19.8,31.7z"/>
</g>
</svg>
