<?xml version="1.0" encoding="utf-8"?>
<!-- Generator: Adobe Illustrator 24.0.1, SVG Export Plug-In . SVG Version: 6.00 Build 0)  -->
<svg version="1.1" id="Layer_1" xmlns="http://www.w3.org/2000/svg" xmlns:xlink="http://www.w3.org/1999/xlink" x="0px" y="0px"
	 viewBox="0 0 77 77" style="enable-background:new 0 0 77 77;" xml:space="preserve">
<style type="text/css">
	.st0{fill:#fff;}
</style>
<g>
	<path class="st0" d="M27.6,5.2c0.9,0.5,1.2,1.2,0.7,1.9c-0.2,0.3-0.7,0.4-1,0.5c-0.5,0.1-1.1,0-1.7,0c0,2.9,0,5.8,0,8.7
		c2.9,0,5.7,0,8.7,0c0-0.5,0-1,0-1.5c0-0.9,0.5-1.4,1.2-1.4c0.7,0,1.2,0.5,1.2,1.4c0,1.3,0,2.6,0,3.9c0,5.2,0,10.3,0,15.5
		c0,0.3,0,0.5,0,0.7c-0.1,0.7-0.5,1.1-1.1,1.1c-0.6,0-1.1-0.4-1.2-1.1c-0.1-0.6,0-1.2,0-1.8c-0.3,0-0.6,0-0.8,0
		c-5.4,0-10.8,0-16.2,0C13,33,9.7,30.2,9,26c-0.1-0.6-0.1-1.2-0.1-1.9c0-5.2,0-10.5,0-15.7c0-0.3,0-0.5,0-0.9c-0.5,0-1,0-1.4,0
		C6.5,7.6,6,7.3,5.9,6.8C5.7,6,6.1,5.6,6.7,5.2C13.6,5.2,20.6,5.2,27.6,5.2L27.6,5.2z M34.2,30.6L34.2,30.6c0-4,0-7.9,0-11.9
		c-0.3,0-0.5,0-0.7,0c-2.9,0-5.8,0-8.7,0c-1.2,0-1.6-0.4-1.6-1.6c0-2.9,0-5.8,0-8.8c0-0.2,0-0.5,0-0.7c-4,0-7.9,0-11.9,0
		c0,0.1,0,0.2,0,0.3c0,5.6,0,11.1,0,16.7c0,0.9,0.2,1.8,0.6,2.6c1.1,2.4,3.2,3.4,5.7,3.4c5.3,0,10.7,0,16,0
		C33.7,30.7,34,30.7,34.2,30.6L34.2,30.6z"/>
	<path class="st0" d="M51.5,41.8c0-2.9,0-5.8,0-8.7c-2.9,0-5.8,0-8.7,0c0,0.5,0,0.9,0,1.3c0,1.1-0.4,1.6-1.2,1.7
		c-0.8,0-1.2-0.5-1.2-1.7c0-0.7,0-1.3,0-2c0-5.7,0-11.4,0-17.1c0-0.3,0-0.6,0.1-0.9c0.1-0.6,0.5-0.9,1.1-0.9c0.6,0,1.1,0.3,1.2,0.9
		c0.1,0.7,0.1,1.3,0.1,2.1c0.3,0,0.5,0,0.8,0c5.4,0,10.8,0,16.2,0c4.2,0,7.6,2.8,8.3,7c0.1,0.6,0.1,1.3,0.1,1.9c0,5.2,0,10.4,0,15.6
		c0,0.3,0,0.5,0,0.9c0.6,0,1.1,0,1.6,0c0.9,0,1.4,0.5,1.4,1.2c0,0.7-0.5,1.2-1.4,1.2c-6.6,0-13.2,0-19.8,0c-0.8,0-1.3-0.3-1.4-0.9
		c-0.1-0.5,0.1-1,0.6-1.3c0.2-0.1,0.5-0.1,0.8-0.2C50.4,41.8,50.9,41.8,51.5,41.8L51.5,41.8z M65.8,41.8L65.8,41.8
		c0-0.3,0-0.5,0-0.7c0-5.3,0-10.6,0-15.9c0-3.9-2.5-6.4-6.4-6.4c-5.3,0-10.6,0-15.9,0c-0.2,0-0.5,0-0.7,0c0,4,0,8,0,11.9
		c0.3,0,0.5,0,0.7,0c2.8,0,5.6,0,8.4,0c1.6,0,1.9,0.3,1.9,1.8c0,2.8,0,5.7,0,8.5c0,0.2,0,0.5,0,0.7C57.9,41.8,61.8,41.8,65.8,41.8
		L65.8,41.8z"/>
	<path class="st0" d="M68.2,63.4c-0.1,4.5-3.5,8.1-7.7,8.4c-4.4,0.3-8.2-2.8-8.9-7.1c-0.3-1.9,0.3-3.7,1-5.4
		c1.7-3.8,3.9-7.3,6.2-10.8c0.6-0.8,1.5-0.9,2-0.1c2.6,3.8,5,7.6,6.7,11.9c0.3,0.7,0.5,1.4,0.6,2.1C68.2,62.8,68.1,63.2,68.2,63.4
		L68.2,63.4z M59.9,51.3L59.9,51.3c-0.1,0.1-0.1,0.1-0.2,0.1c-1.6,2.7-3.2,5.4-4.6,8.2c-0.6,1.2-1.1,2.5-1.1,3.8
		c0,3.6,3.1,6.2,6.5,5.8c3.7-0.4,6.2-4.3,5-7.6c-1-2.7-2.4-5.1-3.8-7.5C61.1,53.2,60.5,52.3,59.9,51.3L59.9,51.3z"/>
</g>
</svg>
