<?xml version="1.0" encoding="utf-8"?>
<!-- Generator: Adobe Illustrator 24.0.1, SVG Export Plug-In . SVG Version: 6.00 Build 0)  -->
<svg version="1.1" id="Layer_1" xmlns="http://www.w3.org/2000/svg" xmlns:xlink="http://www.w3.org/1999/xlink" x="0px" y="0px"
	 viewBox="0 0 359.3 141" style="enable-background:new 0 0 359.3 141;" xml:space="preserve">
<style type="text/css">
	.st0{fill:#10499A;}
	.st1{fill:#8EBBE1;}
	.st2{fill:#1A4E9C;}
	.st3{fill:#5A5A5A;}
</style>
<g>
	<path class="st0" d="M105.1,83.6c-0.5,25.2-21,45.5-46.3,45.5c-25.3,0-45.9-20.3-46.3-45.5H0.3c0,2.6,0.3,5.2,0.6,7.7
		c3.4-0.5,6.7,1.7,7.6,5.1c0.9,3.4-0.9,6.9-4,8.2c1.4,3.7,3.2,7.1,5.4,10.3c2.9-1.8,6.8-1.3,9.1,1.4c2.2,2.7,2.1,6.6-0.2,9.2
		c2.8,2.6,5.9,5,9.2,7.1c1.9-2.8,5.7-4,8.8-2.6c3.2,1.5,4.8,5.1,3.7,8.4c3.7,1.2,7.4,2,11.4,2.5c0.5-3.4,3.4-6,6.9-6
		c3.5,0,6.4,2.6,6.9,6c3.9-0.5,7.7-1.3,11.4-2.5c-1-3.3,0.6-6.9,3.7-8.4c3.2-1.5,7-0.3,8.8,2.6c3.3-2,6.4-4.4,9.2-7.1
		c-2.3-2.6-2.4-6.5-0.2-9.2c2.3-2.7,6.2-3.2,9.1-1.4c2.1-3.2,3.9-6.6,5.4-10.3c-3.1-1.3-4.9-4.8-4-8.2c0.9-3.4,4.2-5.6,7.6-5.1
		c0.3-2.5,0.5-5.1,0.6-7.7H105.1z M48.1,49.8c-3.5,6-1.8,21.8,0.3,28.3c-2.7,0-5.5,0-8.3,0C37.2,66.6,38.7,57.1,48.1,49.8L48.1,49.8
		z M58.9,51.8c-3.4,5.6-1.7,20.2,0.3,26.2c-2.6,0-5.4,0-8,0C48.3,67.2,50,58.5,58.9,51.8L58.9,51.8z M68.6,55.1
		C65.5,60,67,72.8,68.8,78c-2.4,0-4.8,0-7.2,0C58.9,68.5,60.6,60.9,68.6,55.1L68.6,55.1z M78.1,58c-2.8,4.3-1.6,15.3,0.1,19.9
		c-2.1,0-4.3,0-6.5,0C69.2,69.5,70.9,63.1,78.1,58L78.1,58z M87.3,59.2c-2.8,4-1.5,14.4,0.1,18.7c-2.1,0-4.3,0-6.4,0.1
		C78.6,69.9,80.4,63.8,87.3,59.2L87.3,59.2z M106.5,46.6l1.7,0.8v17.1l-1.7,1.3V46.6z M43.2,81.9c6.3,1.1,10.4,0.5,15.3,0
		c7.3-0.8,12.1-0.6,17.6,0c2.4,0.3,21.3,1.4,29,0v-1h12.1V65l-4.1-0.8v10.7l-0.8,0.6V61.7l-1.5,1.4V48.6l-0.6-0.2v-2.8l-0.9-0.3
		v-2.3c0,0-0.5-1.5-1.5-1.9c-0.2-0.1-0.4-0.1-0.6-0.1h0c0,0,0,0,0,0h-0.1c-0.5,0.1-0.8,0.6-0.8,0.6v2.3l-1-0.4v3l-0.6-0.2v4
		l-0.8,0.7v-6.1l0.6,0.2v-3l1,0.4v-2.3c0,0,0.3-0.5,0.8-0.6l-5.2,1.2v2.2l-1.4,0.3v2.6L98.4,46v8.5l-1.4,1.1v-5.7l-2.5-0.8v-0.9
		L92,47.5v25.4l-0.9,0.7V46.1l-4.4,0.9v0.9l-1.9,0.4V36l0.3-0.3v-1.1l-0.3-0.1l-3.4-1.4v-1.9l-2-0.8l-0.8-0.3L78,29.8l-0.4-0.2
		l-0.5-0.2v1.9l-1.8-0.7h0L75,30.6v16c-0.3,0.2-0.6,0.5-1,0.8V29.1l0,0h0l0.3,0.1l1.8,0.7V28l0.5,0.2l0.4,0.1l0.7,0.3l0.9,0.3
		c0.6-0.2,0.9-0.5,0.9-0.7l0-0.7c0-0.5-1.4-1.1-2.8-1.1c-0.2,0-0.4,0-0.6,0v-6.5h-1v6.6c-0.2,0-0.4,0.1-0.6,0.2
		c-0.6,0.2-1,0.5-1.1,0.8v0.8c0,0.2,0.1,0.3,0.4,0.5l-6.3,2.5L67,31.5v1l0.3,0.2V52c0,0-1.7,1.2-2.2,1.5V21.6l-1.8-3.4l-3.8-7.4
		l0,35.7c0,0-1.1,0.6-1.1,0.7V9.8L54.1,0l-6.6,11.5l0.1,33.7l-12,10.3V30.7h0.3l2.1-1.1l0.2-0.9l0.5-0.5l0-1.2l0.6-0.4l0-0.8
		c0,0,0,0,0,0v-1.3c0,0-0.7-0.7-3.1-1v-0.3c-0.1-0.2-1-0.4-2.1-0.4V12.3h-1.7v10.6c-1,0.1-1.7,0.2-1.8,0.4v0.2
		c-2.6,0.3-3.2,1.1-3.2,1.1v2c0.3,0.1,0.6,0.3,0.8,0.4c0,0,0,1.2,0,1.2c0,0,0.7,0.3,0.7,0.3v1l0,0c0,0,2.3,1,2.3,1h0V32l-6.1,1.7
		v25.6l-4.9,4v-4.7l-1.3-0.1v-1.4l-4.9-2v17.2l-1.2,1V54.5l-3.1,0.9l0,1.3L8,57.1V73H1.8v5.1h0v1H0v2.8l7.7,0
		C21.3,83.4,33,80.4,43.2,81.9L43.2,81.9z"/>
	<path class="st1" d="M80.8,121.3c3.4-1.9,6.4-4.2,9.1-6.9H62.6v1.8H29.8c1.4,1.2,2.8,2.3,4.3,3.3h40.7v1.8H80.8z M103.2,83.6H14.7
		c0,1.1,0.1,2.3,0.2,3.4h23.3v1.8h64.5C103,87,103.1,85.3,103.2,83.6L103.2,83.6z M102.1,92.7H38.2v1.8h-22c0.3,1.1,0.7,2.3,1.1,3.3
		h33.2v1.8h49.5C100.8,97.3,101.5,95,102.1,92.7L102.1,92.7z M98.1,103.5H50.4v1.8H20.8c0.7,1.1,1.4,2.2,2.2,3.3h39.7v1.8h30.9
		C95.2,108.3,96.8,106,98.1,103.5L98.1,103.5z"/>
	<path class="st2" d="M105.1,83.6c-0.5,25.2-21,45.5-46.3,45.5c-25.3,0-45.9-20.3-46.3-45.5H0.3c0,2.6,0.3,5.2,0.6,7.7
		c3.4-0.5,6.7,1.7,7.6,5.1c0.9,3.4-0.9,6.9-4,8.2c1.4,3.7,3.2,7.1,5.4,10.3c2.9-1.8,6.8-1.3,9.1,1.4c2.2,2.7,2.1,6.6-0.2,9.2
		c2.8,2.6,5.9,5,9.2,7.1c1.9-2.8,5.7-4,8.8-2.6c3.2,1.5,4.8,5.1,3.7,8.4c3.7,1.2,7.4,2,11.4,2.5c0.5-3.4,3.4-6,6.9-6
		c3.5,0,6.4,2.6,6.9,6c3.9-0.5,7.7-1.3,11.4-2.5c-1-3.3,0.6-6.9,3.7-8.4c3.2-1.5,7-0.3,8.8,2.6c3.3-2,6.4-4.4,9.2-7.1
		c-2.3-2.6-2.4-6.5-0.2-9.2c2.3-2.7,6.2-3.2,9.1-1.4c2.1-3.2,3.9-6.6,5.4-10.3c-3.1-1.3-4.9-4.8-4-8.2c0.9-3.4,4.2-5.6,7.6-5.1
		c0.3-2.5,0.5-5.1,0.6-7.7H105.1z M48.1,49.8c-3.5,6-1.8,21.8,0.3,28.3c-2.7,0-5.5,0-8.3,0C37.2,66.6,38.7,57.1,48.1,49.8L48.1,49.8
		z M58.9,51.8c-3.4,5.6-1.7,20.2,0.3,26.2c-2.6,0-5.4,0-8,0C48.3,67.2,50,58.5,58.9,51.8L58.9,51.8z M68.6,55.1
		C65.5,60,67,72.8,68.8,78c-2.4,0-4.8,0-7.2,0C58.9,68.5,60.6,60.9,68.6,55.1L68.6,55.1z M78.1,58c-2.8,4.3-1.6,15.3,0.1,19.9
		c-2.1,0-4.3,0-6.5,0C69.2,69.5,70.9,63.1,78.1,58L78.1,58z M87.3,59.2c-2.8,4-1.5,14.4,0.1,18.7c-2.1,0-4.3,0-6.4,0.1
		C78.6,69.9,80.4,63.8,87.3,59.2L87.3,59.2z M106.5,46.6l1.7,0.8v17.1l-1.7,1.3V46.6z M43.2,81.9c6.3,1.1,10.4,0.5,15.3,0
		c7.3-0.8,12.1-0.6,17.6,0c2.4,0.3,21.3,1.4,29,0v-1h12.1V65l-4.1-0.8v10.7l-0.8,0.6V61.7l-1.5,1.4V48.6l-0.6-0.2v-2.8l-0.9-0.3
		v-2.3c0,0-0.5-1.5-1.5-1.9c-0.2-0.1-0.4-0.1-0.6-0.1h0c0,0,0,0,0,0h-0.1c-0.5,0.1-0.8,0.6-0.8,0.6v2.3l-1-0.4v3l-0.6-0.2v4
		l-0.8,0.7v-6.1l0.6,0.2v-3l1,0.4v-2.3c0,0,0.3-0.5,0.8-0.6l-5.2,1.2v2.2l-1.4,0.3v2.6L98.4,46v8.5l-1.4,1.1v-5.7l-2.5-0.8v-0.9
		L92,47.5v25.4l-0.9,0.7V46.1l-4.4,0.9v0.9l-1.9,0.4V36l0.3-0.3v-1.1l-0.3-0.1l-3.4-1.4v-1.9l-2-0.8l-0.8-0.3L78,29.8l-0.4-0.2
		l-0.5-0.2v1.9l-1.8-0.7h0L75,30.6v16c-0.3,0.2-0.6,0.5-1,0.8V29.1l0,0h0l0.3,0.1l1.8,0.7V28l0.5,0.2l0.4,0.1l0.7,0.3l0.9,0.3
		c0.6-0.2,0.9-0.5,0.9-0.7l0-0.7c0-0.5-1.4-1.1-2.8-1.1c-0.2,0-0.4,0-0.6,0v-6.5h-1v6.6c-0.2,0-0.4,0.1-0.6,0.2
		c-0.6,0.2-1,0.5-1.1,0.8v0.8c0,0.2,0.1,0.3,0.4,0.5l-6.3,2.5L67,31.5v1l0.3,0.2V52c0,0-1.7,1.2-2.2,1.5V21.6l-1.8-3.4l-3.8-7.4
		l0,35.7c0,0-1.1,0.6-1.1,0.7V9.8L54.1,0l-6.6,11.5l0.1,33.7l-12,10.3V30.7h0.3l2.1-1.1l0.2-0.9l0.5-0.5l0-1.2l0.6-0.4l0-0.8
		c0,0,0,0,0,0v-1.3c0,0-0.7-0.7-3.1-1v-0.3c-0.1-0.2-1-0.4-2.1-0.4V12.3h-1.7v10.6c-1,0.1-1.7,0.2-1.8,0.4v0.2
		c-2.6,0.3-3.2,1.1-3.2,1.1v2c0.3,0.1,0.6,0.3,0.8,0.4c0,0,0,1.2,0,1.2c0,0,0.7,0.3,0.7,0.3v1l0,0c0,0,2.3,1,2.3,1h0V32l-6.1,1.7
		v25.6l-4.9,4v-4.7l-1.3-0.1v-1.4l-4.9-2v17.2l-1.2,1V54.5l-3.1,0.9l0,1.3L8,57.1V73H1.8v5.1h0v1H0v2.8l7.7,0
		C21.3,83.4,33,80.4,43.2,81.9L43.2,81.9z M36.7,53.1l5-4.4V35l-5-3V53.1z"/>
	<path class="st2" d="M148.1,96.7l-5.8-11.1l-2.5,12.1h-3.4l3.8-15.9c0.2-1.1,0.9-1.7,1.8-1.7c0.7,0,1.3,0.6,2,1.7l5.8,11.3
		l5.8-11.3c0.6-1.2,1.3-1.8,2-1.7c0.9,0.1,1.5,0.7,1.8,1.7l3.8,15.9h-3.4l-2.5-12.1l-5.8,11.1c-0.3,0.8-0.9,1.1-1.6,1.1
		C149,97.8,148.4,97.4,148.1,96.7L148.1,96.7z M328,97.5V80.3h3v14.3h11.9v3H328z M319.9,92.7h-8.2l1.8-3h4.6l-3-5l-7.8,12.8h-3.9
		l9.4-15.6c0.3-0.5,0.7-0.9,1.2-1.2c0.4-0.3,0.8-0.4,1.1-0.5c0.3,0,0.7,0.1,1.2,0.4c0.5,0.3,0.9,0.8,1.2,1.3l9.2,15.6h-3.9
		L319.9,92.7z M291.2,97.5c-2.7,0-4.8-0.9-6.5-2.7c-1.5-1.7-2.2-3.7-2.2-6.1c0-2.3,0.7-4.3,2.1-5.8c1.6-1.7,3.8-2.6,6.5-2.6h9.7v3
		h-9.7c-1.7,0-3.1,0.6-4.2,1.7c-0.9,1-1.4,2.3-1.5,3.7c0,1.6,0.4,2.9,1.4,4c1.1,1.2,2.5,1.8,4.3,1.8h9.7v3H291.2z M275.3,80.3h3
		v17.3h-3V80.3z M267.1,96.7L256,85.6v11.9h-3V81.8c0-0.5,0.1-0.9,0.4-1.1c0.3-0.3,0.6-0.4,0.9-0.4c0.6,0,1.1,0.3,1.7,0.9l11.1,11.1
		v-12h3v15.8c0,1.1-0.4,1.6-1.1,1.6C268.4,97.7,267.8,97.4,267.1,96.7L267.1,96.7z M244,92.7h-8.2l1.8-3h4.5l-3-5l-7.8,12.8h-3.9
		l9.4-15.6c0.3-0.5,0.7-0.9,1.2-1.2c0.4-0.3,0.8-0.4,1.1-0.5c0.3,0,0.8,0.1,1.2,0.4c0.5,0.3,0.9,0.8,1.2,1.3l9.2,15.6h-3.9L244,92.7
		z M210.4,97.5h-3V80.3h3V97.5z M222,87.4v-7.1h3v17.3h-3v-7.1h-10.2v-3H222z M194.2,97.5c-2.7,0-4.9-0.9-6.5-2.7
		c-1.4-1.7-2.2-3.7-2.2-6.1c0-2.3,0.7-4.3,2.1-5.8c1.6-1.7,3.8-2.6,6.6-2.6h9.7v3h-9.7c-1.7,0-3.1,0.6-4.2,1.7
		c-0.9,1-1.5,2.3-1.5,3.7c0,1.6,0.4,2.9,1.4,4c1.1,1.2,2.5,1.8,4.4,1.8h9.7v3H194.2z M170,94.6h11.9v3h-14.9V80.3h14.9v3H170V94.6z
		 M181.1,90.3h-9.9v-3h9.9V90.3z M142.1,71.6h-3V54.3h12.4c2.2,0,3.9,0.7,5.2,2c1.1,1.2,1.7,2.6,1.7,4.3c0,1.7-0.6,3.1-1.7,4.3
		c-1.3,1.2-3,1.9-5.2,1.9h-7.6v-3h8c1.1,0,2-0.3,2.7-1c0.6-0.6,0.9-1.4,0.9-2.3c0-0.9-0.3-1.6-0.9-2.2c-0.7-0.6-1.5-1-2.7-1h-9.8
		V71.6z M249.8,71.6c-2.7,0-4.8-0.9-6.5-2.8c-1.5-1.7-2.2-3.7-2.2-6c0-2.3,0.7-4.3,2.1-5.8c1.6-1.8,3.8-2.7,6.6-2.7h9.7v3h-9.7
		c-1.7,0-3.1,0.6-4.2,1.7c-0.9,1-1.4,2.2-1.5,3.7c0,1.5,0.4,2.9,1.4,4c1.1,1.1,2.5,1.8,4.4,1.8h9.7v3H249.8z M233.8,54.3h3v17.3h-3
		V54.3z M218.1,71.6h-3V54.3H230v3h-11.9V71.6z M229.2,64.4h-9.9v-3h9.9V64.4z M207.5,54.3h3v17.3h-3V54.3z M193.8,71.6
		c-2.7,0-4.8-0.9-6.5-2.8c-1.4-1.7-2.2-3.7-2.2-6c0-2.3,0.7-4.3,2.1-5.8c1.6-1.8,3.8-2.7,6.6-2.7h9.7v3h-9.7c-1.8,0-3.1,0.6-4.3,1.7
		c-0.9,1-1.4,2.2-1.5,3.7c0,1.5,0.4,2.9,1.4,4c1.1,1.1,2.6,1.8,4.4,1.8h9.7v3H193.8z M176.5,66.8h-8.2l1.8-3h4.5l-3-5L164,71.6h-3.9
		l9.4-15.6c0.3-0.5,0.8-0.9,1.2-1.2c0.5-0.3,0.8-0.5,1.1-0.5c0.4,0,0.8,0.1,1.2,0.4c0.5,0.3,0.9,0.7,1.3,1.3l9.1,15.6h-3.9
		L176.5,66.8z"/>
	<path class="st3" d="M356.2,122.2c0-0.5,0.2-0.9,0.4-1.1c0.3-0.3,0.7-0.4,1.1-0.4c0.4,0,0.8,0.2,1.1,0.4c0.3,0.3,0.5,0.6,0.5,1.1
		c0,0.5-0.2,0.9-0.5,1.1c-0.3,0.3-0.6,0.4-1.1,0.4c-0.4,0-0.8-0.1-1.1-0.4C356.3,123.1,356.2,122.7,356.2,122.2L356.2,122.2z
		 M334.7,123.7v-17.3h9.8c2.8,0,4.9,0.9,6.5,2.6c1.4,1.5,2.1,3.4,2.1,5.8c0,2.4-0.7,4.4-2.2,6.1c-1.6,1.8-3.8,2.8-6.5,2.8H334.7z
		 M337.7,109.4v11.3h6.8c1.8,0,3.3-0.6,4.3-1.8c0.9-1.1,1.4-2.4,1.3-4c0-1.5-0.5-2.7-1.5-3.7c-1-1.1-2.4-1.7-4.1-1.7H337.7z
		 M324.6,109.4v14.3h-3v-14.3h-6.8v-3h16.6v3H324.6z M298.1,123.7v-17.3h3v14.2H313v3H298.1z M281.7,123.7h-13.2v-3h13.2
		c1,0,1.8-0.3,2.4-0.7c0.6-0.5,0.9-1,0.9-1.7c0-0.6-0.3-1.1-0.9-1.6c-0.6-0.4-1.4-0.7-2.4-0.7h-8.2c-1.7,0-3.1-0.5-4-1.5
		c-0.9-0.9-1.3-2-1.3-3.3c0-1.3,0.4-2.4,1.3-3.3c1-1,2.3-1.4,4-1.4h13.1v3h-13.1c-0.6,0-1.1,0.2-1.5,0.5c-0.4,0.4-0.6,0.8-0.6,1.3
		c0,0.5,0.2,0.9,0.6,1.1c0.3,0.4,0.9,0.6,1.5,0.6h8.2c1.9,0,3.4,0.6,4.4,1.7c1,1,1.5,2.3,1.5,3.7c0,1.4-0.5,2.7-1.5,3.7
		C285.1,123.1,283.6,123.7,281.7,123.7L281.7,123.7z M250.2,122.8l-5.8-11.1l-2.5,12.1h-3.4l3.9-15.9c0.3-1.1,0.9-1.6,1.8-1.7
		c0.7-0.1,1.4,0.5,1.9,1.7l5.8,11.3l5.7-11.4c0.6-1.2,1.3-1.7,2-1.7c1,0.1,1.6,0.6,1.8,1.7l3.8,15.9h-3.4l-2.5-12.1l-5.8,11.1
		c-0.4,0.8-0.9,1.2-1.7,1.2C251.2,124,250.7,123.6,250.2,122.8L250.2,122.8z M223.6,120.7h11.9v3h-14.9v-17.3h14.9v3h-11.9V120.7z
		 M234.8,116.5h-9.9v-3h9.9V116.5z M211.2,109.4v14.3h-3v-14.3h-6.8v-3H218v3H211.2z M193.3,123.7h-13.1v-3h13.1
		c1,0,1.8-0.3,2.4-0.7c0.6-0.5,0.8-1,0.8-1.7c0-0.6-0.3-1.1-0.8-1.6c-0.6-0.4-1.4-0.7-2.4-0.7h-8.1c-1.7,0-3.1-0.5-4.1-1.5
		c-0.9-0.9-1.4-2-1.4-3.3c0-1.3,0.5-2.4,1.4-3.3c1-1,2.3-1.4,4.1-1.4h13v3h-13c-0.7,0-1.2,0.2-1.6,0.5c-0.3,0.4-0.5,0.8-0.5,1.3
		c0,0.5,0.2,0.9,0.5,1.1c0.4,0.4,0.9,0.6,1.6,0.6h8.1c1.9,0,3.3,0.6,4.4,1.7c1,1,1.5,2.3,1.5,3.7c0,1.4-0.5,2.7-1.4,3.7
		C196.6,123.1,195.1,123.7,193.3,123.7L193.3,123.7z M169.4,123.7h-3V118l-8.8-11.5h3.9l6.5,8.5l6.1-8.5h3.9l-8.5,11.5V123.7z
		 M149.9,123.7h-13.2v-3h13.2c1,0,1.8-0.3,2.4-0.7c0.6-0.5,0.8-1,0.8-1.7c0-0.6-0.3-1.1-0.8-1.6c-0.6-0.4-1.4-0.7-2.4-0.7h-8.2
		c-1.7,0-3.1-0.5-4-1.5c-0.9-0.9-1.3-2-1.3-3.3c0-1.3,0.4-2.4,1.3-3.3c1-1,2.3-1.4,4-1.4h13.1v3h-13.1c-0.6,0-1.1,0.2-1.5,0.5
		c-0.4,0.4-0.6,0.8-0.6,1.3c0,0.5,0.2,0.9,0.5,1.1c0.4,0.4,0.9,0.6,1.6,0.6h8.2c1.8,0,3.3,0.6,4.4,1.7c1,1,1.5,2.3,1.5,3.7
		c0,1.4-0.5,2.7-1.5,3.7C153.3,123.1,151.8,123.7,149.9,123.7L149.9,123.7z"/>
</g>
</svg>
