<?xml version="1.0" encoding="utf-8"?>
<!-- Generator: Adobe Illustrator 24.0.1, SVG Export Plug-In . SVG Version: 6.00 Build 0)  -->
<svg version="1.1" id="Layer_1" xmlns="http://www.w3.org/2000/svg" xmlns:xlink="http://www.w3.org/1999/xlink" x="0px" y="0px"
	 viewBox="0 0 77 77" style="enable-background:new 0 0 77 77;" xml:space="preserve">
<style type="text/css">
	.st0{fill:#fff;}
</style>
<g>
	<path class="st0" d="M69.6,26.1c3.3-3.3,4.5-8,3.1-12.4c-0.2-0.7-0.7-1.1-1.3-1.3c-0.7-0.2-1.3,0-1.8,0.5l-5,5l-3.5-0.9l-0.9-3.5
		l5-5c0.5-0.5,0.7-1.1,0.5-1.8c-0.1-0.7-0.6-1.1-1.2-1.3c-4.8-1.4-10,0.1-13.3,4c-2.8,3.4-3.6,8.1-2.1,12.2l-6.3,6.3L27.2,12.2
		l-7.1-7.1c-1.8-1.8-4.7-1.8-6.5,0l0,0l-8.5,8.5c-1.8,1.8-1.8,4.7,0,6.5l7.1,7.1l15.5,15.5L21.5,49c-4.6-1.6-9.6-0.5-13.1,2.9
		c-3.3,3.3-4.5,8-3.1,12.4c0.2,0.7,0.7,1.1,1.3,1.3c0.7,0.2,1.3,0,1.8-0.5l5-5l3.5,0.9l0.9,3.5l-5,5c-0.5,0.5-0.7,1.1-0.5,1.8
		c0.2,0.7,0.6,1.1,1.3,1.3c1.2,0.4,2.4,0.5,3.6,0.5c3.7,0,7.2-1.6,9.6-4.5c2.8-3.4,3.6-8.1,2.1-12.2l6.3-6.3l15.1,15.1l0,0
		c0.1,0,0.1,0.1,0.1,0.1c0,0,0,0,0.1,0c0,0,0.1,0.1,0.1,0.1c0,0,0,0,0.1,0c0.1,0,0.1,0.1,0.2,0.1l0,0l0,0L67.7,69c0.1,0,0.1,0,0.2,0
		c0.3,0,0.6-0.1,0.8-0.3c0.3-0.3,0.4-0.7,0.3-1l-2-9.9l0,0l-1.4-6.9l0,0l0,0c0-0.1,0-0.1-0.1-0.2v0c0-0.1-0.1-0.1-0.1-0.2
		c0,0,0,0,0,0c0-0.1-0.1-0.1-0.1-0.1l0,0L50.3,35.3l6.3-6.3C61.1,30.7,66.2,29.5,69.6,26.1L69.6,26.1z M55.5,26.9L55.5,26.9
		l-6.8,6.8l-4.3-4.3l6.8-6.8c0.3-0.3,0.4-0.9,0.3-1.3c-1.5-3.5-0.9-7.7,1.5-10.6c2.5-3,6.4-4.3,10.1-3.5l-4.9,5
		c-0.3,0.3-0.4,0.7-0.3,1.1l1.3,4.8c0.1,0.4,0.4,0.7,0.8,0.8l4.8,1.3c0.4,0.1,0.8,0,1.1-0.3l4.9-4.9c0.8,3.4-0.3,7-2.7,9.5
		c-3,3-7.4,3.8-11.3,2.1C56.3,26.4,55.8,26.5,55.5,26.9L55.5,26.9z M57.7,64.7L57.7,64.7l-4.2-0.9l10.3-10.3l0.9,4.2L57.7,64.7z
		 M60.4,65.2L60.4,65.2l4.8-4.8l1.2,6.1L60.4,65.2z M51.1,62.9L51.1,62.9l-28-28l5.3-5.3L51.9,53c0.2,0.2,0.5,0.3,0.8,0.3
		c0.3,0,0.6-0.1,0.8-0.3c0.5-0.5,0.5-1.2,0-1.6L29.2,27.1c-0.2-0.2-0.5-0.3-0.8-0.3c-0.3,0-0.6,0.1-0.8,0.3l-6.1,6.1l-6.9-6.8
		l11.8-11.8l36.5,36.5L51.1,62.9z M26.6,56.7L26.6,56.7c1.5,3.5,0.9,7.7-1.5,10.6c-2.5,3-6.4,4.3-10.1,3.5l4.9-4.9
		c0.3-0.3,0.4-0.7,0.3-1.1l-1.3-4.8c-0.1-0.4-0.4-0.7-0.8-0.8l-4.8-1.3c-0.4-0.1-0.8,0-1.1,0.3l-5,4.9c-0.8-3.4,0.3-7,2.7-9.4
		c3-3,7.4-3.8,11.3-2.2c0.4,0.2,0.9,0.1,1.3-0.3l6.8-6.8l4.3,4.3l-6.8,6.8C26.5,55.8,26.4,56.3,26.6,56.7L26.6,56.7z M6.7,15.1
		L6.7,15.1l8.5-8.5l0,0c0.9-0.9,2.4-0.9,3.3,0l6.3,6.3L13,24.8l-6.3-6.3C5.8,17.5,5.8,16.1,6.7,15.1L6.7,15.1z"/>
</g>
</svg>
