<?xml version="1.0" encoding="utf-8"?>
<!-- Generator: Adobe Illustrator 24.0.1, SVG Export Plug-In . SVG Version: 6.00 Build 0)  -->
<svg version="1.1" id="Layer_1" xmlns="http://www.w3.org/2000/svg" xmlns:xlink="http://www.w3.org/1999/xlink" x="0px" y="0px"
	 viewBox="0 0 77 77" style="enable-background:new 0 0 77 77;" xml:space="preserve">
<style type="text/css">
	.st0{fill:#fff;}
</style>
<g>
	<path class="st0" d="M38.5,5.5c18.2,0,33.1,14.8,33.1,33c0,18.2-14.8,33.1-32.9,33.1c-18.2,0-33.1-14.8-33.1-32.9
		C5.5,20.3,20.2,5.5,38.5,5.5L38.5,5.5z M69,38.5L69,38.5C69.1,21.7,55.4,8,38.6,8C21.7,7.9,8,21.5,8,38.3C7.9,55.3,21.5,69,38.4,69
		C55.3,69.1,69,55.5,69,38.5L69,38.5z"/>
	<path class="st0" d="M36.8,11.1c1.5,0.3,3.1,0.4,4.7,0.9c3.9,1,6,3.7,6.3,7.7c0.3,3.1-0.4,6-1.3,9c-0.1,0.5-0.3,1-0.5,1.4
		c-0.8,1.7-1.2,3.3,0.2,4.9c0.5,0.6,0.6,1.5,0.7,2.4c0.1,0.7,0.4,0.9,1,1c3.5,0.9,7.1,1.2,10.8,1.1c0.9,0,1.8,0.2,2.7,0.3
		c2.1,0.3,3.6,2.4,3.5,4.4c-0.1,1.2-0.2,2.4-0.6,3.5c-0.8,2.6-2.4,4.9-4.3,6.8c-2.7,2.7-5.9,3.2-9.4,1.8c-2.2-0.9-4.1-2.3-5.8-4
		c-1.4-1.5-2.8-3.1-4.1-4.6C40.3,47.2,40,47,39.4,47c-1.4-0.1-2.8-0.3-4.2-0.6c-0.5-0.1-0.8-0.1-1.2,0.3c-2.3,2.4-4.3,5-5.9,7.9
		c-0.2,0.4-0.5,0.8-0.7,1.2c-2.2,3.9-5.6,4.5-8.9,1.4c-2.9-2.7-4.5-6.1-4.9-10.1c-0.2-2,0.5-3.8,1.8-5.4c3-3.4,7.1-4.6,11.4-5.4
		c1-0.2,2.1-0.3,3.1-0.6c0.2-0.1,0.5-0.3,0.6-0.5c0.6-1.4,1.5-2.6,2.8-3.5c0.5-0.3,0.4-0.7,0.3-1.1c-1-3.4-2.4-6.7-4.3-9.8
		c-0.1-0.1-0.1-0.2-0.2-0.3c-2.5-4.1-1.2-7.4,3.5-8.6C33.9,11.4,35.3,11.4,36.8,11.1L36.8,11.1z M43,31.2L43,31.2
		c0.3-0.9,0.7-1.8,1-2.7c0.9-2.6,1.6-5.2,1.4-8c-0.1-2.3-0.7-4.4-2.9-5.5c-3.3-1.6-6.7-1.7-10.1-0.5c-2.2,0.8-2.6,2.1-1.5,4.2
		c0.2,0.3,0.4,0.5,0.5,0.9c1.2,2.6,2.5,5.2,3.7,7.9c0.4,0.9,0.7,1.8,1,2.8C38.5,29.6,40.8,29.9,43,31.2L43,31.2z M42.4,46.2
		L42.4,46.2c2.1,2,4,4.1,6.1,5.8c1.2,1,2.7,1.6,4.1,2.2c1.4,0.5,2.8,0.5,4.1-0.4c3.2-2.2,5.1-5.2,5.7-9c0.3-1.8-0.5-2.7-2.4-3
		c-0.6-0.1-1.2,0-1.8-0.1c-2.9-0.2-5.8-0.4-8.6-0.7c-0.9-0.1-1.9-0.3-2.8-0.5C46.1,43,44.8,44.8,42.4,46.2L42.4,46.2z M29.9,38
		L29.9,38c-2.7,0.8-5.2,1.3-7.7,2.2c-1.5,0.5-2.9,1.5-4.2,2.5c-1.6,1.2-2.1,2.9-1.8,4.8c0.5,2.9,1.8,5.5,3.9,7.6
		c2.3,2.3,3.9,2,5.4-0.8c1.8-3.3,3.9-6.3,6.5-9c0.2-0.2,0.4-0.4,0.6-0.7C30.8,42.9,29.9,40.8,29.9,38L29.9,38z M44.6,38.7L44.6,38.7
		c0.2-3.1-2.4-6-5.7-6.3c-3.2-0.3-6.3,2.3-6.6,5.4c-0.3,3.5,2.3,6.5,5.8,6.8C41.4,44.8,44.5,42.2,44.6,38.7L44.6,38.7z"/>
	<path class="st0" d="M64.3,36.1c0.1,0.9-0.1,1.4-1.1,1.6c-0.8,0.1-1.2-0.3-1.4-1.3c-0.5-5-2.4-9.4-5.7-13.2
		c-0.5-0.6-0.7-1.3-0.1-1.9c0.5-0.5,1.3-0.5,1.9,0.3C61.7,25.6,63.7,30.5,64.3,36.1L64.3,36.1z"/>
	<path class="st0" d="M38.6,64.5c-3.8-0.1-7.4-0.9-10.9-2.5c-0.8-0.4-1.2-0.9-0.9-1.7c0.2-0.7,1-1,1.9-0.5c2.9,1.3,5.9,2.1,9.1,2.1
		c1.7,0,3.4-0.2,5-0.4c1.1-0.1,1.7,0.1,1.9,0.9c0.1,0.8-0.3,1.4-1.4,1.5C41.7,64.2,40.1,64.3,38.6,64.5L38.6,64.5z"/>
	<path class="st0" d="M15.4,32c-1.2,0-1.8-0.7-1.5-1.6c0.3-0.9,0.6-1.7,1-2.5c1.9-4.2,4.7-7.7,8.5-10.4c0.6-0.4,1.2-0.7,1.9-0.2
		c0.7,0.6,0.6,1.5-0.3,2.2c-3,2.1-5.4,4.8-7.1,8c-0.6,1.1-1,2.4-1.6,3.5C16.1,31.4,15.6,31.8,15.4,32L15.4,32z"/>
	<path class="st0" d="M27.8,22.7c-0.3,0.4-0.5,0.8-0.8,1.1c-1.1,1.2-2.3,2.3-3.5,3.5c-0.6,0.7-1.3,0.9-1.9,0.4
		c-0.6-0.5-0.7-1.2-0.1-1.8c1.3-1.4,2.6-2.7,4-4.1c0.3-0.3,1-0.3,1.3-0.2S27.5,22.3,27.8,22.7L27.8,22.7z"/>
	<path class="st0" d="M59.7,35.7c-0.3,0.8-0.6,1.3-1.3,1.4c-0.7,0.1-1.2-0.2-1.3-0.9c-0.5-1.8-1-3.6-1.5-5.4
		c-0.2-0.7,0.1-1.3,0.7-1.5c0.7-0.3,1.3-0.1,1.5,0.6C58.5,31.8,59.1,33.8,59.7,35.7L59.7,35.7z"/>
	<path class="st0" d="M36,59.7c-1.9-0.5-3.7-1-5.6-1.7c-0.7-0.2-1-0.8-0.7-1.6c0.3-0.7,0.9-0.9,1.6-0.7c1.7,0.4,3.4,0.9,5,1.3
		c0.8,0.2,1.2,0.6,1.1,1.4C37.5,59.3,36.9,59.6,36,59.7L36,59.7z"/>
</g>
</svg>
