<?xml version="1.0" encoding="utf-8"?>
<!-- Generator: Adobe Illustrator 24.0.1, SVG Export Plug-In . SVG Version: 6.00 Build 0)  -->
<svg version="1.1" id="Layer_1" xmlns="http://www.w3.org/2000/svg" xmlns:xlink="http://www.w3.org/1999/xlink" x="0px" y="0px"
	 viewBox="0 0 77 77" style="enable-background:new 0 0 77 77;" xml:space="preserve">
<style type="text/css">
	.st0{fill:#fff;}
</style>
<g>
	<path class="st0" d="M7.5,18.2c0-0.7,0.4-1.2,1-1.3c6.9-1.4,13.2-4.3,19.2-7.7c3.4-2,6.7-4.1,9.9-6.5c0.7-0.5,1.2-0.5,1.9,0.1
		c5.5,4.1,11.4,7.6,17.7,10.4c3.6,1.6,7.3,2.9,11.2,3.7c0.9,0.2,1.3,0.7,1.2,1.6c-0.3,2.9-0.6,5.7-1,8.6c-0.9,5.9-2.3,11.6-4.1,17.2
		c-2,5.8-4.5,11.4-8,16.5c-2.9,4.3-6.4,8-10.8,10.8c-2,1.3-4.1,2.3-6.4,3.1c-0.5,0.1-0.9,0.1-1.3,0c-5.3-1.9-9.8-5.1-13.5-9.2
		c-3.9-4.4-6.9-9.4-9.2-14.9c-2.4-5.6-4.2-11.5-5.5-17.6c-1-4.5-1.6-8.9-2-13.5C7.5,19,7.5,18.6,7.5,18.2L7.5,18.2z M66.8,19.7
		L66.8,19.7c0.1-0.6,0-0.5-0.5-0.7c-2.2-0.6-4.3-1.2-6.4-2c-7.6-2.8-14.5-6.8-21-11.5c-0.3-0.2-0.5-0.2-0.8,0
		c-4.6,3.3-9.4,6.3-14.5,8.8c-4,2-8.2,3.6-12.5,4.6c-1,0.3-1,0.3-0.9,1.2c0.4,3.8,1,7.6,1.8,11.4c1.4,6.6,3.3,13.1,6.1,19.2
		c2.1,4.6,4.7,9,8.1,12.8c3.3,3.7,7.1,6.6,11.8,8.4c0.3,0.1,0.6,0.1,0.9,0c2.9-1.1,5.6-2.7,8-4.7c3.8-3.1,6.7-7,9.2-11.2
		c3-5.3,5.2-10.9,6.9-16.7C64.9,32.9,66.2,26.3,66.8,19.7L66.8,19.7z"/>
	<path class="st0" d="M15,23.9c-0.1-1,0.5-1.5,1.4-1.7c3.6-0.7,7-2.1,10.3-3.7c3.7-1.8,7.3-4,10.7-6.5c0.8-0.6,1.3-0.6,2.1,0
		c5.2,3.8,10.8,6.9,17,9c1.4,0.5,2.8,0.8,4.3,1.1c0.8,0.2,1.2,0.7,1.2,1.5c-0.3,2.6-0.6,5.2-1,7.8c-0.9,5.1-2.2,10-4.2,14.8
		c-1.8,4.3-4,8.3-7.1,11.8c-2.9,3.2-6.3,5.7-10.4,7.1c-0.5,0.2-0.9,0.2-1.4,0c-4.7-1.7-8.5-4.6-11.6-8.5s-5.2-8.3-6.9-13
		c-1.8-4.8-2.9-9.8-3.7-14.9C15.4,27.2,15.2,25.6,15,23.9L15,23.9z M26.1,51.9L26.1,51.9c0.1-0.1,0.2-0.1,0.3-0.1
		c9.8-3.7,19.5-7.3,29.2-11c0.3-0.1,0.5-0.3,0.5-0.5c0.7-2.7,1.4-5.4,2-8.1c0.5-2.3,0.8-4.7,1.1-7.1c0.1-0.4-0.1-0.6-0.5-0.7
		c-1-0.2-2-0.6-3-0.8c-0.2-0.1-0.5-0.1-0.7,0c-11.6,4.4-23.2,8.7-34.8,13.1c-0.1,0.1-0.3,0.1-0.4,0.2C20.4,40.1,23.9,48.9,26.1,51.9
		L26.1,51.9z M51.8,22L51.8,22c-0.2-0.1-0.3-0.1-0.3-0.2c-4.5-2-8.7-4.4-12.7-7.3c-0.3-0.2-0.4-0.1-0.6,0c-2.3,1.5-4.5,3-6.9,4.3
		c-4.1,2.4-8.5,4.3-13.1,5.4c-0.5,0.1-0.5,0.3-0.5,0.7c0.4,2.5,0.8,4.9,1.2,7.4c0.1,0.6,0.3,1.2,0.4,1.8
		C30.1,30.2,40.9,26.2,51.8,22L51.8,22z M54.9,43.9L54.9,43.9c-0.1,0-0.1-0.1-0.1-0.1c-9.1,3.4-18.1,6.8-27.3,10.3
		c0.3,0.3,0.5,0.6,0.7,0.9c2.6,3.4,5.8,6.1,9.8,7.7c0.3,0.1,0.7,0.1,1,0c3.3-1.3,6.1-3.4,8.5-6.1c2.6-2.9,4.6-6.2,6.2-9.8
		C54.1,45.9,54.5,44.9,54.9,43.9L54.9,43.9z"/>
</g>
</svg>
