<?xml version="1.0" encoding="utf-8"?>
<!-- Generator: Adobe Illustrator 24.0.1, SVG Export Plug-In . SVG Version: 6.00 Build 0)  -->
<svg version="1.1" id="Layer_1" xmlns="http://www.w3.org/2000/svg" xmlns:xlink="http://www.w3.org/1999/xlink" x="0px" y="0px"
	 viewBox="0 0 308.4 370.9" style="enable-background:new 0 0 308.4 370.9;" xml:space="preserve">
<style type="text/css">
	.st0{fill:#2459A8;}
</style>
<g>
	<path class="st0" d="M276.4,219.8c-1.2,66.4-55.2,119.7-121.7,119.7C88,339.5,34,286.1,32.8,219.8H0.9c0.1,6.9,0.7,13.7,1.5,20.4
		c9-1.2,17.7,4.5,20,13.4c2.5,9-2.2,18.2-10.6,21.8c3.9,9.5,8.6,18.5,14.1,27c7.6-4.7,17.9-3.3,23.9,3.9c5.9,7.1,5.6,17.3-0.4,24.1
		c7.4,6.9,15.4,13.2,24.1,18.5c4.9-7.5,14.9-10.6,23.3-6.7s12.4,13.5,9.8,22.1c9.6,3.1,19.6,5.4,29.9,6.7c1.2-9,8.9-15.9,18.2-15.9
		c9.2,0,16.9,6.9,18.1,15.9c10.3-1.3,20.2-3.5,29.9-6.7c-2.7-8.6,1.4-18.1,9.8-22.1c8.4-4,18.3-0.9,23.2,6.7
		c8.7-5.4,16.7-11.6,24.1-18.5c-6-6.8-6.3-17.1-0.4-24.1c6-7.2,16.3-8.6,23.9-3.9c5.6-8.5,10.3-17.5,14.1-27
		c-8.4-3.5-13.1-12.8-10.6-21.8c2.4-8.9,11-14.6,20-13.4c0.9-6.6,1.4-13.5,1.5-20.4H276.4z M126.5,131c-9.3,15.6-4.7,57.2,1,74.3
		c-7.2-0.1-14.5-0.1-21.9,0C97.7,175.2,101.7,150.3,126.5,131L126.5,131z M154.9,136.2c-9,14.7-4.5,53.1,0.9,69
		c-7-0.1-14.1,0-21.1,0C127,176.7,131.4,153.8,154.9,136.2L154.9,136.2z M180.4,145.1c-8.1,12.8-4.2,46.3,0.7,60
		c-6.4,0.1-12.6,0.2-19,0.1C154.9,180.1,159.4,160.3,180.4,145.1L180.4,145.1z M205.3,152.6c-7.4,11.3-4.1,40.3,0.4,52.5
		c-5.6,0.1-11.5-0.1-17.1,0C182,182.8,186.5,165.9,205.3,152.6L205.3,152.6z M229.6,155.7c-7.3,10.5-3.8,37.8,0.4,49.3
		c-5.6,0.1-11.3,0.1-17,0.2C206.7,183.8,211.5,167.8,229.6,155.7L229.6,155.7z M280.1,122.5l4.4,2v44.9l-4.4,3.5V122.5z
		 M113.6,215.4c16.6,3,27.4,1.3,40.3,0c19.1-2,31.7-1.6,46.2,0c6.3,0.9,56.1,3.7,76.3,0v-2.7h31.8V171l-10.8-2.1v28.1l-2.1,1.7
		v-36.5l-4,3.6v-38.2l-1.4-0.5v-7.5l-2.4-0.9v-6c0,0-1.4-3.9-3.9-4.9c-0.5-0.3-1.1-0.3-1.5-0.3H282c-0.1,0-0.1,0-0.1,0.1h-0.3
		c-1.3,0.4-2,1.7-2,1.7v6.1l-2.6-1v7.8l-1.6-0.5v10.5l-2.1,1.7v-16l1.5,0.6v-7.9l2.7,1v-6.1c0,0,0.8-1.4,2-1.7l-13.8,3.1v5.7
		l-3.7,0.8v6.9l-3.2,0.7v22.3l-3.7,2.9v-14.9l-6.4-2v-2.4l-6.5-2v66.9l-2.4,1.9v-72.4l-11.5,2.4v2.4l-4.9,1V94.6l0.7-0.6v-2.8
		l-0.7-0.2l-9-3.7v-4.9l-5.2-2.1l-2.1-1l-1.8-0.8l-1.1-0.4l-1.2-0.4v5l-4.7-1.9h-0.1l-0.7-0.3v42.1c-1,0.7-1.7,1.3-2.6,2v-48
		l-0.1-0.1h0.1l0.9,0.3l4.8,1.9v-5l1.2,0.5l1.1,0.4l1.7,0.8l2.3,0.9c1.5-0.5,2.2-1.2,2.4-1.8l-0.1-1.9c0-1.1-3.6-2.7-7.4-2.7
		c-0.6,0-1.1,0-1.7,0.1v-17h-2.6v17.5c-0.6,0.1-1.2,0.3-1.7,0.5c-1.7,0.5-2.7,1.3-2.9,2v2c0.1,0.4,0.3,0.9,1,1.2l-16.6,6.5l-0.9,0.3
		v2.7l0.9,0.5v50.5c0,0-4.6,3.3-5.8,4.1V56.9l-4.7-8.9l-10.1-19.4l-0.1,93.8c0,0-2.9,1.5-3,1.8V25.7L142.3,0l-17.4,30.2l0.3,88.8
		l-31.5,27.2V80.6h0.8l5.5-2.8l0.4-2.2l1.3-1.3l0.1-3.2l1.7-1l0.1-2c0.1,0,0.1,0,0,0v-3.3c0,0-1.8-1.8-8.2-2.7v-0.7
		c-0.3-0.5-2.6-1-5.5-1.1v-28h-4.4v28c-2.6,0.2-4.4,0.5-4.7,1V62c-6.7,0.9-8.5,2.8-8.5,2.8v5.3c0.7,0.3,1.5,0.8,2,1
		c0,0-0.1,3.1,0,3.2c0.1,0.1,1.7,1,1.7,1v2.6L76,78c0.1,0.1,6,2.7,6,2.7h0.1v3.4L66,88.6V156L53,166.4v-12.2l-3.4-0.4v-3.7l-13-5.2
		v45.2l-3.1,2.4v-49.3l-8.2,2.4l-0.1,3.4l-4.1,1.2v41.7H4.8v13.5H4.7v2.7H0v7.5l20.4-0.2C56,219.5,86.8,211.4,113.6,215.4
		L113.6,215.4z"/>
	<path class="st0" d="M212.5,319c8.8-5,16.9-11.1,24.1-18.1h-71.9v4.7H78.5c3.6,3.1,7.4,6,11.3,8.7h107v4.7H212.5z M271.3,219.8
		H38.7c0.1,3,0.2,5.9,0.5,8.8h61.3v4.7h169.8C270.9,228.9,271.2,224.4,271.3,219.8L271.3,219.8z M268.5,243.8h-168v4.7H42.7
		c0.8,2.9,1.7,5.8,2.7,8.7h87.2v4.7h130.2C265.2,256.1,267.1,250,268.5,243.8L268.5,243.8z M257.9,272.3H132.6v4.7H54.7
		c1.8,3,3.7,5.9,5.7,8.7h104.3v4.7H246C250.5,284.8,254.5,278.7,257.9,272.3L257.9,272.3z"/>
</g>
</svg>
